/* XPM */
static char *_d0be617012a4d2debe914ad428f3fc4[] = {
/* columns rows colors chars-per-pixel */
"16 16 206 2 ",
"   c #2E2D50",
".  c #2D2E50",
"X  c #2E2E50",
"o  c #2F2A57",
"O  c #352B57",
"+  c #352D56",
"@  c #342D57",
"#  c #3B325E",
"$  c #313163",
"%  c #3C3666",
"&  c #433563",
"*  c #443663",
"=  c #473B65",
"-  c #473D6B",
";  c #4D3F6B",
":  c #4A3D6C",
">  c #3F445A",
",  c #41465B",
"<  c #42465B",
"1  c #42475B",
"2  c #4F4866",
"3  c #4D406B",
"4  c #46496A",
"5  c #4E4E6A",
"6  c #4C4E6E",
"7  c #514B6D",
"8  c #554A6F",
"9  c #524C6D",
"0  c #52526D",
"q  c #55566D",
"w  c #54576D",
"e  c #5F546D",
"r  c #57596B",
"t  c #55586F",
"y  c #57586F",
"u  c #514870",
"i  c #5E5478",
"p  c #5E557E",
"a  c #60587D",
"s  c #695B7F",
"d  c #745E7B",
"f  c #566E67",
"g  c #556C68",
"h  c #557368",
"j  c #5B7268",
"k  c #6F7861",
"l  c #787E65",
"z  c #6A6672",
"x  c #6D6A75",
"c  c #646079",
"v  c #646778",
"b  c #6A6279",
"n  c #6E657B",
"m  c #666979",
"M  c #676A78",
"N  c #686B78",
"B  c #6E687E",
"V  c #696C7D",
"C  c #696D7D",
"Z  c #736F79",
"A  c #746E79",
"S  c #74707D",
"D  c #77737F",
"F  c #7A8F3F",
"G  c #63D432",
"H  c #3FA748",
"J  c #4D894D",
"K  c #478950",
"L  c #489651",
"P  c #489552",
"I  c #4A965A",
"U  c #50935A",
"Y  c #56925A",
"T  c #52965E",
"R  c #5D945D",
"E  c #7F9240",
"W  c #679450",
"Q  c #40A648",
"!  c #5FBC47",
"~  c #55BA48",
"^  c #4EAC5C",
"/  c #4FB05D",
"(  c #71A45B",
")  c #63B855",
"_  c #519F60",
"`  c #65816D",
"'  c #6E806B",
"]  c #6B8E79",
"[  c #73907B",
"{  c #4FC84E",
"}  c #59CB49",
"|  c #41D046",
" . c #4CD243",
".. c #43D64B",
"X. c #47DB50",
"o. c #50D255",
"O. c #54DC51",
"+. c #6AD540",
"@. c #75D246",
"#. c #7BD243",
"$. c #79D940",
"%. c #71DB4F",
"&. c #44E14A",
"*. c #5EE356",
"=. c #61E844",
"-. c #72E043",
";. c #71E353",
":. c #77C77C",
">. c #6BE075",
",. c #6EE174",
"<. c #90BB3E",
"1. c #8EDA30",
"2. c #93DE36",
"3. c #A2DD3E",
"4. c #BCF73F",
"5. c #C5E638",
"6. c #C5E93F",
"7. c #DCFF3B",
"8. c #DDFE3D",
"9. c #E8FF3E",
"0. c #80994A",
"q. c #84B840",
"w. c #89A652",
"e. c #86BB54",
"r. c #91BB52",
"t. c #80936F",
"y. c #819477",
"u. c #8A9B7A",
"i. c #82BE6E",
"p. c #93A57F",
"a. c #85DB4F",
"s. c #A8C840",
"d. c #ACC940",
"f. c #ABCF43",
"g. c #B1D752",
"h. c #8EEC42",
"j. c #A2E846",
"k. c #A3F14C",
"l. c #A9E256",
"z. c #B2E952",
"x. c #9DC861",
"c. c #92D074",
"v. c #D7F941",
"b. c #D1FF42",
"n. c #6E5E80",
"m. c #685F86",
"M. c #6C6389",
"N. c #766482",
"B. c #796B83",
"V. c #736C88",
"C. c #737780",
"Z. c #767B81",
"A. c #88708B",
"S. c #7F8284",
"D. c #739186",
"F. c #868287",
"G. c #898589",
"H. c #898888",
"J. c #898A8C",
"K. c #8B8E8F",
"L. c #868693",
"P. c #888797",
"I. c #878993",
"U. c #868A95",
"Y. c #898B93",
"T. c #8B8C94",
"R. c #8A8C95",
"E. c #8B8E94",
"W. c #8B8F95",
"Q. c #8C8F95",
"!. c #898C9E",
"~. c #908F90",
"^. c #918E91",
"/. c #918F91",
"(. c #8F9195",
"). c #8D9197",
"_. c #8B959C",
"`. c #949598",
"'. c #97989D",
"]. c #90A492",
"[. c #9DAA92",
"{. c #96A19E",
"}. c #A3A89E",
"|. c #9596A3",
" X c #908FB6",
".X c #9E93B7",
"XX c #9D93B8",
"oX c #A9B4B4",
"OX c #9DCF8B",
"+X c #9DDC81",
"@X c #87CC97",
"#X c #90CF92",
"$X c #A5C996",
"%X c #8ED6A0",
"&X c #8F89C1",
"*X c #9187C5",
"=X c #B298CF",
"-X c #BA98CE",
";X c #B4A5D7",
":X c #B9A6D6",
">X c #B1ABD5",
",X c #B29EE6",
"<X c #B7A7EE",
"1X c #C8D3DD",
"2X c #C5CCE1",
"3X c None",
/* pixels */
"3X3X3X3X3X~.G.S C.F.~.3X3X3X3X3X",
"3X3X3X~.x a p c B s N.z J.3X3X3X",
"3X3XH.b M.l 0.<.q.W l n.2 F.3X3X",
"3X`.n V.E 5.7.g.x.k.@.K B.e (.3X",
"3XZ m.F 9.8.s.*XoX2.a.;.K A.Z 3X",
"'.i k 6.v.d.&X1Xl.y.i.%.{ ` d U.",
"C $ w.b.f. X2X3.[ ,X_.) *.I # C ",
"t 4 r.4.u.>Xz.p.<X+XK.D.O.^ 5 y ",
"q 6 e.j.|.[.1.$XOXG ].!.o.^ 0 q ",
"M % ( h.}.P.#.$.+.} J.{.X._ = v ",
"R.o j -.c.=X[ ! ! ] -X:...h O I.",
"3X, - R =.#X;XXX.X:X@X&.T 3 > 3X",
"3X).. u Y  .,.%X%X>.| U 8 . W.3X",
"3X3XZ.. : f P H H P f ; X D 3X3X",
"3X3X3XQ.1 + & 9 9 * @ , W.3X3X3X",
"3X3X3X3X3XT.N r t M K.3X3X3X3X3X"
};
