/* XPM */
static char *f317f495fe2a4e019f918c5999cf89de[] = {
/* columns rows colors chars-per-pixel */
"32 32 256 2 ",
"   c #51773D",
".  c #627F3F",
"X  c #1B215A",
"o  c #2E344B",
"O  c #31374D",
"+  c #2D3454",
"@  c #353B53",
"#  c #393F56",
"$  c #393F5A",
"%  c #323554",
"&  c #222C4A",
"*  c #36376B",
"=  c #3D4255",
"-  c #3D435A",
";  c #345348",
":  c #3E4763",
">  c #485645",
",  c #43465D",
"<  c #444A5C",
"1  c #494C5D",
"2  c #414F52",
"3  c #4E515D",
"4  c #4B5958",
"5  c #4F704D",
"6  c #6B7F56",
"7  c #454B63",
"8  c #494E65",
"9  c #4A456D",
"0  c #45436C",
"q  c #53446E",
"w  c #534A6B",
"e  c #4C5269",
"r  c #4D5467",
"t  c #535763",
"y  c #50566C",
"u  c #545A6D",
"i  c #5B5C6C",
"p  c #585B66",
"a  c #454373",
"s  c #4B4371",
"d  c #464871",
"f  c #544670",
"g  c #544B72",
"h  c #545271",
"j  c #565B71",
"k  c #585D72",
"l  c #5F547A",
"z  c #645B7C",
"x  c #536264",
"c  c #5D616D",
"v  c #556C63",
"b  c #547160",
"n  c #5E6073",
"m  c #62646D",
"M  c #626473",
"N  c #666972",
"B  c #6B6C72",
"V  c #686977",
"C  c #706E74",
"Z  c #6B7B7F",
"A  c #6F7078",
"S  c #72727D",
"D  c #76787F",
"F  c #78757F",
"G  c #44813E",
"H  c #748F3C",
"J  c #72CD3F",
"K  c #64CC31",
"L  c #3B8444",
"P  c #3DBD47",
"I  c #439B46",
"U  c #538B5B",
"Y  c #53825E",
"T  c #4E965D",
"R  c #529559",
"E  c #5F9359",
"W  c #518F4D",
"Q  c #709350",
"!  c #4FA441",
"~  c #44BA4D",
"^  c #54A957",
"/  c #4AB955",
"(  c #53B859",
")  c #66AA57",
"_  c #7AA156",
"`  c #518062",
"'  c #638260",
"]  c #6A8876",
"[  c #7F8D7D",
"{  c #699A75",
"}  c #779779",
"|  c #73956E",
" . c #68A76C",
".. c #67B764",
"X. c #76B669",
"o. c #75B076",
"O. c #3DC046",
"+. c #45C248",
"@. c #58C342",
"#. c #47C752",
"$. c #4CC853",
"%. c #53CB54",
"&. c #53C35D",
"*. c #53CC5A",
"=. c #5DC859",
"-. c #4FD757",
";. c #53D45B",
":. c #54DB5D",
">. c #58D358",
",. c #5CD54B",
"<. c #78C948",
"1. c #6BD14D",
"2. c #64D64E",
"3. c #76D74B",
"4. c #63C559",
"5. c #6CC65B",
"6. c #6BCA59",
"7. c #69CC5A",
"8. c #7CCB56",
"9. c #75C959",
"0. c #7BCA59",
"q. c #77C457",
"w. c #62D959",
"e. c #77D355",
"r. c #6BCD45",
"t. c #6AE25A",
"y. c #78E659",
"u. c #57C760",
"i. c #859A3E",
"p. c #89A23C",
"a. c #A3BA33",
"s. c #9FDE28",
"d. c #96D83B",
"f. c #AED13C",
"g. c #9AE326",
"h. c #A1E322",
"j. c #BEEB3F",
"k. c #CAEE3E",
"l. c #C5EC3F",
"z. c #8AA742",
"x. c #8B9C78",
"c. c #909E76",
"v. c #96B964",
"b. c #96B47B",
"n. c #88B56E",
"m. c #82D44D",
"M. c #88D542",
"N. c #93DD44",
"B. c #9ADA4C",
"V. c #97D446",
"C. c #84CE54",
"Z. c #89CE56",
"A. c #87D356",
"S. c #93D254",
"D. c #99D656",
"F. c #95C954",
"G. c #A2DA4D",
"H. c #AEDA4B",
"J. c #BDDD4C",
"K. c #B1DB4A",
"L. c #B5DC50",
"P. c #A4D550",
"I. c #98E44F",
"U. c #8CE551",
"Y. c #A9E64A",
"T. c #BCEA44",
"R. c #BBE84A",
"E. c #B8F14B",
"W. c #BFE650",
"Q. c #A7E850",
"!. c #88C367",
"~. c #98CD67",
"^. c #AACA7D",
"/. c #A1C175",
"(. c #C4DE4B",
"). c #CAE14B",
"_. c #C8E647",
"`. c #D8FD4C",
"'. c #CEEC50",
"]. c #E8FF45",
"[. c #5A5880",
"{. c #635D84",
"}. c #6B6487",
"|. c #746989",
" X c #6E7881",
".X c #757A8B",
"XX c #777883",
"oX c #6C699D",
"OX c #756B95",
"+X c #7E729C",
"@X c #755FA9",
"#X c #6B67A1",
"$X c #7768A4",
"%X c #7B74A1",
"&X c #7E78A3",
"*X c #827D85",
"=X c #8B738F",
"-X c #857E95",
";X c #8779A6",
":X c #7B8190",
">X c #79828E",
",X c #79B787",
"<X c #7AA681",
"1X c #858186",
"2X c #8A838A",
"3X c #8C8B8C",
"4X c #878489",
"5X c #928E8E",
"6X c #8C8D92",
"7X c #948B91",
"8X c #988499",
"9X c #939497",
"0X c #9C9494",
"qX c #99999A",
"wX c #95949A",
"eX c #8D948C",
"rX c #A69B9B",
"tX c #A49C96",
"yX c #8EAE8D",
"uX c #ADA29E",
"iX c #A0B798",
"pX c #9389A7",
"aX c #938EB0",
"sX c #A797B7",
"dX c #9BA7A5",
"fX c #B6A7A3",
"gX c #AEB5A6",
"hX c #BEB1BF",
"jX c #B1A2BB",
"kX c #C2AEBA",
"lX c #87C297",
"zX c #AAC887",
"xX c #ABCBBF",
"cX c #D6C4B7",
"vX c #C5CEAD",
"bX c #E0CEBC",
"nX c #9185C3",
"mX c #A296D3",
"MX c #AEA5C5",
"NX c #BBADC7",
"BX c #BAB9D6",
"VX c #B3A4D8",
"CX c #C2BAD2",
"ZX c #B7CDCB",
"AX c #BDC1DB",
"SX c #C2C4D9",
"DX c #E7D9C5",
"FX c #CFE5D8",
"GX c #CBCCE5",
"HX c #D5CCE9",
"JX c #CCD4E3",
"KX c #DAD4F7",
"LX c #D1D6EA",
"PX c #E0D1F5",
"IX c #E2E4FE",
"UX c None",
/* pixels */
"UXUXUXUXUXUXUXUXUXUXUXUX2XA C C p N F 5XUXUXUXUXUXUXUXUXUXUXUXUX",
"UXUXUXUXUXUXUXUXUX3Xm # N m XXM z 2Xi - < t 5XUXUXUXUXUXUXUXUXUX",
"UXUXUXUXUXUXUX0Xp o n V rXrX0XM 7XfXtX*X0X*X- 8 tXUXUXUXUXUXUXUX",
"UXUXUXUXUXUXB o n cX7X5X}.s z z 9 }.z |.fXfX2X*X& B UXUXUXUXUXUX",
"UXUXUXUXUX= i uX*XrX{.0 4 5 H H H   5 2 9 z uX*X: < t UXUXUXUXUX",
"UXUXUXUX3 r 7XfX=XX > p.f.T.Y.E.E.Q.B.<.W ; l n *XrXi < UXUXUXUX",
"UXUXUXi - cXuXz = i.k.`.'.J.Y.H.G.Y.D.D.I.3.G % 8X2XA 7 B UXUXUX",
"UXUXqX1 XXqX{.@ a.].'.(.J.(.j.eX>Xd.B.Z.Z.A.U.! 1 |.1X0X8 9XUXUX",
"UXUX@ S bX}.+ a.].).).(._.l.x.$XnXdXV.S.Z.8.9.y.I < 8X2Xi < UXUX",
"UX9X< F 4X* i.].).(.(._.k.x.oXAXKXzXV.N.C.0.9.5.t.L f 0X0X# 9XUX",
"UXA 2XfX}.> k.'.(.(._.k.x.oXBXIXzXg.F.<Xm.e.9.5.7.>.; =XDXXXe UX",
"UX- *X0X0 z.`.J.J._.k.c.oXAXIXzXg.B..X@Xx.3.6.5.4.w.I q qXA # UX",
"9X# y d 4 K.W.L.J.l.c.oXBXIX^.h.B..X&XSXVX} 1.6.4.u.#.4 9 8 , 9X",
".X- y a 6 T.L.L.l.v.oXBXIX^.h.G..X%XGXFXyX@X .1.=.&.;.b f u - XX",
"V 7 u a Q E.H.K.H.>XaXIXzXh.F.A %XHXJX<.| ;X>X4.=.u.;.T q j 8 V ",
"n y u d _ Y.P.K.v.OXAXvXd.d.dXmXGXJX0.K iXjXOX .%.&.;.T q y y k ",
"k y u d _ Q.D.Y.x.;XNX/.d.V.~.LXGXq.J 1.n.sXpX{ %.&.;.T g u y i ",
"M 8 u s Q Q.S.N.b.sXaXv.N.S.M.!.!.r.0.1.X.pXaX<X$.&.;.T f u e M ",
"XX, u a ' U.S.M.b.sX$Xo.U.C.Z.<.<.9.9.2. .OXsX,X#.( ;.` f u -  X",
"6X# u g x C.A.m.!.hXpX] m.C.8.9.9.5.7.2.>X;XhX..#.*.*.x g u $ 6X",
"UX- u y s ) U.0.<.gXNXOX| 3.3.e.6.2.,.{ OXNXgX~ &.;.^ f u j # UX",
"UXp 8 j g v e.e.r.X.GXMX}.] ..4.4...] }.jXHX .+.u.;.v f u 8 p UX",
"UX6X@ j u s E y.7.@.yXKXBX;XOX XZ |.;XBXPX,XP &.:.T q u u @ 6XUX",
"UXUX< 8 u y 8 ) t.7.@.o.JXKXBXMXMXBXKXGX,XP &.:.^ w h u e < UXUX",
"UXUXqXO j u g w ^ w.>.+.( lXxXZXZXxXlX( P *.:.^ r g u j O 9XUXUX",
"UXUXUXN @ j u g q U =.w.%.+.~ / / P P -.:.%.U w g p k @ m UXUXUX",
"UXUXUXUX3 # k u h q x R ( %.-.-.;.;.%.( R x f h u k $ 3 UXUXUXUX",
"UXUXUXUXUX4 @ j u u g q x b b R U ` b t f g u u j @ 3 UXUXUXUXUX",
"UXUXUXUXUXUXN o 8 k u u h g f q f f g h u u k 8 o N UXUXUXUXUXUX",
"UXUXUXUXUXUXUXqX3 O 7 j j u p u u y j j k 7 O 1 qXUXUXUXUXUXUXUX",
"UXUXUXUXUXUXUXUXUX6Xi = @ $ 7 r 8 7 - @ = p 6XUXUXUXUXUXUXUXUXUX",
"UXUXUXUXUXUXUXUXUXUXUXUX6XF N c c N D 6XUXUXUXUXUXUXUXUXUXUXUXUX"
};
