/* XPM */
static char *_e9897741cf14427c3e4d123ff2001d1[] = {
/* columns rows colors chars-per-pixel */
"64 64 256 2 ",
"   c #262A37",
".  c #2D313C",
"X  c #32353D",
"o  c #344D36",
"O  c #3D732C",
"+  c #465235",
"@  c #58792E",
"#  c #1A2849",
"$  c #2D3346",
"%  c #323644",
"&  c #35394C",
"*  c #34394B",
"=  c #2A3554",
"-  c #333B53",
";  c #3A3E53",
":  c #343D5C",
">  c #38375B",
",  c #252D4E",
"<  c #3A3A69",
"1  c #3C3E71",
"2  c #453A67",
"3  c #453B5F",
"4  c #3C4349",
"5  c #3B4155",
"6  c #3C435C",
"7  c #38435D",
"8  c #385B45",
"9  c #3C4563",
"0  c #3C4366",
"q  c #3F4074",
"w  c #3E6E4C",
"e  c #43464C",
"r  c #444858",
"t  c #475259",
"y  c #52545B",
"u  c #525B5C",
"i  c #58595A",
"p  c #4B524C",
"a  c #546759",
"s  c #557657",
"d  c #4D6F57",
"f  c #434A63",
"g  c #494E66",
"h  c #47476A",
"j  c #534668",
"k  c #4D5265",
"l  c #4C526B",
"z  c #4F5863",
"x  c #52566B",
"c  c #54596D",
"v  c #595C6D",
"b  c #545763",
"n  c #4A4875",
"m  c #544471",
"M  c #544B73",
"N  c #555373",
"B  c #565B71",
"V  c #595E74",
"C  c #585879",
"Z  c #4E5475",
"A  c #586264",
"S  c #5C6175",
"D  c #5B6178",
"F  c #4D6161",
"G  c #66666A",
"H  c #636473",
"J  c #6B6C76",
"K  c #696A78",
"L  c #73747C",
"P  c #777677",
"I  c #717074",
"U  c #63625E",
"Y  c #837E77",
"T  c #3C8B3B",
"R  c #708D2F",
"E  c #4FB33C",
"W  c #6BAD3A",
"Q  c #4D8831",
"!  c #6EC139",
"~  c #74C635",
"^  c #3BB945",
"/  c #3DAE47",
"(  c #3E8B46",
")  c #528E53",
"_  c #6B9351",
"`  c #44B649",
"'  c #53B94D",
"]  c #54A956",
"[  c #53BA58",
"{  c #4BAC50",
"}  c #6AB554",
"|  c #739878",
" . c #6D9178",
".. c #5AAD64",
"X. c #76A479",
"o. c #6EA96E",
"O. c #58C64A",
"+. c #4CC855",
"@. c #54C15E",
"#. c #5BC35C",
"$. c #52C95B",
"%. c #55CA54",
"&. c #53D45C",
"*. c #56D758",
"=. c #4FCA49",
"-. c #65C94A",
";. c #74CA49",
":. c #67D44D",
">. c #7AD44A",
",. c #64C45A",
"<. c #6BC65A",
"1. c #6CCA59",
"2. c #66C957",
"3. c #7DCB56",
"4. c #73C959",
"5. c #7ACA59",
"6. c #72C857",
"7. c #67D658",
"8. c #77D456",
"9. c #54C360",
"0. c #54CB61",
"q. c #5DCA61",
"w. c #57D462",
"e. c #6FDA65",
"r. c #72E159",
"t. c #8EB332",
"y. c #819B31",
"u. c #9AD42E",
"i. c #97C93B",
"p. c #93D137",
"a. c #B8DA37",
"s. c #ACD42F",
"d. c #BBE83E",
"f. c #C3E73C",
"g. c #87847C",
"h. c #8C9E78",
"j. c #8BB367",
"k. c #9ABC68",
"l. c #8EAA73",
"z. c #A2BE7F",
"x. c #88C949",
"c. c #94CA48",
"v. c #87D64B",
"b. c #98D84A",
"n. c #84CD56",
"m. c #8ACF55",
"M. c #86C756",
"N. c #92CF54",
"B. c #89D354",
"V. c #94D253",
"C. c #9BD453",
"Z. c #9AD956",
"A. c #ADD94E",
"S. c #A7D94C",
"D. c #B4DB4E",
"F. c #BCDC4C",
"G. c #A2D551",
"H. c #A4D953",
"J. c #ABD951",
"K. c #ABD750",
"L. c #B2D84F",
"P. c #92E453",
"I. c #A4E442",
"U. c #B6E445",
"Y. c #A8E358",
"T. c #B7E654",
"R. c #BFF052",
"E. c #83DE62",
"W. c #C2DE4B",
"Q. c #C9DF48",
"!. c #C6E04A",
"~. c #C7E546",
"^. c #DAFC4A",
"/. c #CBF051",
"(. c #E1FD51",
"). c #E4FF4F",
"_. c #6E7084",
"`. c #737484",
"'. c #7C7A83",
"]. c #73768A",
"[. c #75798D",
"{. c #787A89",
"}. c #7C7D93",
"|. c #7D759B",
" X c #7C7999",
".X c #6F6B8F",
"XX c #7D75A4",
"oX c #7C78AD",
"OX c #7B73AF",
"+X c #827C84",
"@X c #817E9D",
"#X c #82759D",
"$X c #8376A1",
"%X c #798588",
"&X c #7D8193",
"*X c #7C8098",
"=X c #78A885",
"-X c #888689",
";X c #938B8D",
":X c #8B9986",
">X c #949289",
",X c #868897",
"<X c #989597",
"1X c #8F9190",
"2X c #A69B97",
"3X c #A19D8C",
"4X c #9BB79A",
"5X c #94AD90",
"6X c #A9A29B",
"7X c #B4A99E",
"8X c #ACB89A",
"9X c #979AA7",
"0X c #918BAC",
"qX c #A49BAE",
"wX c #9CB1AB",
"eX c #A4A3A3",
"rX c #A8A7A9",
"tX c #B7A9A5",
"yX c #B9B3A9",
"uX c #A7A7B7",
"iX c #B9B7B8",
"pX c #A7B2B2",
"aX c #C3B4AC",
"sX c #CAB9AC",
"dX c #C6BBB5",
"fX c #CAB6B0",
"gX c #C9C2B7",
"hX c #D5C1B4",
"jX c #DAC6B7",
"kX c #E6CFBE",
"lX c #B6AEC4",
"zX c #988DC7",
"xX c #C7BDDB",
"cX c #C4B4C6",
"vX c #B9C3CE",
"bX c #BDC6D3",
"nX c #C6CAD7",
"mX c #C8D3DB",
"MX c #CDCCCE",
"NX c #EAD4C2",
"BX c #F0DECB",
"VX c #FCEFD6",
"CX c #CCC9E8",
"ZX c #CCD9E3",
"AX c #CCD8E4",
"SX c #D2D8E9",
"DX c #CBCDF1",
"FX c #D1CDF2",
"GX c #D5D8F3",
"HX c #D2CAEC",
"JX c #DAE6EB",
"KX c #DBE4E8",
"LX c #DBE2F4",
"PX c #FFFFEB",
"IX c #A2C3A0",
"UX c None",
/* pixels */
"UXUXUXUXUXUXUXUXUXUXUXUXUXUXUXUXUXUXUXUXUXUXUXUXUXUXUX3X-Xg.P P P P g.;X3X7XUXUXUXUXUXUXUXUXUXUXUXUXUXUXUXUXUXUXUXUXUXUXUXUXUXUX",
"UXUXUXUXUXUXUXUXUXUXUXUXUXUXUXUXUXUXUXUXUXUX7Xg.G r 5 r * , , : g 6 # # - r y G g.7XUXUXUXUXUXUXUXUXUXUXUXUXUXUXUXUXUXUXUXUXUXUX",
"UXUXUXUXUXUXUXUXUXUXUXUXUXUXUXUXUXUXUXUXg.y 5 6 : c K 9 v aXaX'.6 x 6X7Xx l f : 6 & y Y UXUXUXUXUXUXUXUXUXUXUXUXUXUXUXUXUXUXUXUX",
"UXUXUXUXUXUXUXUXUXUXUXUXUXUXUXUXUXyXI e 5 9 l f ;XjXH f fX7X<X-X6 tXaXtXaX6 '.;X9 g l > 4 I 7XUXUXUXUXUXUXUXUXUXUXUXUXUXUXUXUXUX",
"UXUXUXUXUXUXUXUXUXUXUXUXUXUXUXUXI * , N h 2X'., 2XBXP +XdX, # = ,XdX# # fXK eXeXr fXH k V 6 & G UXUXUXUXUXUXUXUXUXUXUXUXUXUXUXUX",
"UXUXUXUXUXUXUXUXUXUXUXUXUXUX>X4 ; D P f : yXtX# _.NX`.g sX6X2X;Xk hX;X;XhXk yXS `.PXK 2X+X: f : e g.UXUXUXUXUXUXUXUXUXUXUXUXUXUX",
"UXUXUXUXUXUXUXUXUXUXUXUXUXU * l f '.VX<X, S fXI K 7Xv 9 H tXaX+X: J fXfXH H aXk tXyXdXtXf ;XhXL f - i UXUXUXUXUXUXUXUXUXUXUXUXUX",
"UXUXUXUXUXUXUXUXUXUXUXaXe , l f : '.sXNXjX6 tXkXv v K C n 0 < < C h h n h K H I <XH PX+X# dXhX+Xf B 9 e 7XUXUXUXUXUXUXUXUXUXUXUX",
"UXUXUXUXUXUXUXUXUXUX6X* 6 -XsXaXx x kX7XtX+Xh S Z n > ; 4 + p + p + o & 7 : < C Z B 2XL H 7X<X= B c B f & 3XUXUXUXUXUXUXUXUXUXUX",
"UXUXUXUXUXUXUXUXUX6X, : I BXL <XaXx aXk - C q > 4 + @ R t.t.i.i.i.x.t.W R @ + * : M 0 x sXNX+X> V f k x 9 - >XUXUXUXUXUXUXUXUXUX",
"UXUXUXUXUXUXUXUX6X$ D L , tX2Xr hXH b v n > + R t.a./.R.R.T.T.Y.J.Y.Y.Y.Y.P.v.W @ o > h K '.H '.: L hXhX-X: & 3XUXUXUXUXUXUXUXUX",
"UXUXUXUXUXUXUXyX4 = r sX+X# aXVX;Xg M > + R s././.!.T.L.L.J.K.K.G.G.C.Z.V.N.Z.P.P.;.Q o > < L +Xx hX-XL NXL 9 & 7XUXUXUXUXUXUXUX",
"UXUXUXUXUXUXUXr : 2X;X;XVX;XB -Xh n * @ a.(./.W.W.F.T.L.L.L.A.A.S.G.G.C.N.N.N.m.n.E.E.;.O % 2 0 +XgX= , -X'.9 9 5 UXUXUXUXUXUXUX",
"UXUXUXUXUXUXU 7 f 2XPX2XtXNXk 0 h X t.^.(.W.W.W.W.F.F.D.L.A.U.S.H.S.C.C.N.C.N.m.n.M.M.E.E.E o h l 7XhXL , k +Xl 7 U UXUXUXUXUXUX",
"UXUXUXUXUX>X* 9 7 = -XhXv 6 C 1 + a.).Q.W.W.W.W.W.W.F.D.L.U.U.:X,XS.I.C.C.N.N.m.m.n.n.5.3.E.O.o > N 2XJ H jXhXtXk = -XUXUXUXUXUX",
"UXUXUXUXUX; N <X;XK = ;X-Xg < + f.(.Q.Q.W.Q.W.W.W.F.F.D.U.U.:XOXXX:Xb.I.V.C.N.m.n.n.3.3.6.6.r.;.o 2 0 r jX-X, aX2X7 5 UXUXUXUXUX",
"UXUXUXUXI = v BXhXjXhXk 9 n + f.(.Q.Q.Q.~.!.!.W.!.F.F.U.d.:XOX,X[.XX .c.G.V.N.m.n.n.3.3.4.6.6.e.:.o 0 c hX`., aX6X0 > J UXUXUXUX",
"UXUXUXUX5 c 7 '.NXtXH S n o a.(.Q.Q.Q.Q.!.!.!.W.F.F.~.U.:X$X}.,XqX9XzX4Xb.b.N.m.n.n.n.5.5.6.6.<.e.O.o 2 +XhXhX7X0 - l ; yXUXUXUX",
"UXUXUXP - g c # fXaX= N = t.(.Q.Q.Q.Q.Q.!.!.!.W.!.~.d.:XoX&X&XvXSXLXGX5Xx.b.N.B.m.n.n.5.4.4.1.<.2.e./ % h H +Xb H 6X+X- J UXUXUX",
"UXUXUX; S 6XJ +Xx P B < R ^.Q.Q.Q.Q.Q.Q.!.!.W.W.~.f.:XoX*X&XbXKXGXDXk.p.C.V.b.B.n.n.3.3.4.6.<.<.2.q.e.O 3 h +X2XjXVXb 0 5 UXUXUX",
"UXUX-X, aX<X-XVXY = Z p a./.F.!.!.~.!.!.W.W.W.~.~.:XoX&X%XbXJXGXDXk.p.Z.V.P.j.M.v.n.5.5.4.4.<.<.,.#.q.%.8 m H <XNXL v L - '.UXUX",
"UXUXk r hXS ; yXtX< < R ^.F.!.!.W.F.!.!.W.W.~.f.:XoX&X&XnXJXGXFXk.u.H.b.I.j.OX%Xv.v.5.5.4.6.<.<.,.2.#.e.T ; h aXyXsXVX+X: z UXUX",
"UXyX6 9 ;XkX<XsXL 1 p d./.F.F.F.F.W.!.F.F.~.f.:XoX&X&XbXJXGXFXk.u.H.C.I.j.XX@XXX%X>.>.5.4.6.<.<.,.,.#.q.%.8 M k 2XjX`.f B ; rXUX",
"UX,X; c 0 -XaXJ f 0 R /.D.F.F.F.F.W.~.F.~.~.:XoX&X%XnXJXLXDXk.u.H.Z.I.j.XX X}.].|.{.>.8.6.6.<.<.,.,.q.#.w.( ; K 6Xv ; c B 6 %XUX",
"UXH f c c 9 : f C e i./.D.F.F.F.F.F.F.!.~.:XOX&X}.nXJXSXFXk.u.S.H.I.j.XX X[.9XlXuXzX%X6.8.<.<.,.2.#.#.#.q.` p C r l B c c k v UX",
"UXk x c c c c c n s U.F.D.D.D.F.F.F.U.d.h.OX}.&XnXKXGXDXk.u.Y.H.I.j.OX,X].9XZXZXLXnX$X .:.2.<.,.,.#.#.#.#.$.w m c N c c c x r UX",
"UX6 c c c c c B h _ ~.J.L.D.D.D.D.D.f.k.OX}.}.MXJXGXDXk.u.J.H.I.j.oX X].9XZXmXGX4X .@X$XX.:.<.,.#.#.#.#.9.w.( 3 B c c c c c r eX",
"<X5 c c c c c B < y.R.J.A.L.L.L.D.U.A.}.@X].lXKXGXAXk.u.K.K.I.j.XX*X[.9XZXmXDXIXW {.@X X}.} 7.,.#.,.#.#.9.w./ r C x c c c c 6 ,X",
",X5 c c c c c N t i.T.K.A.J.A.A.L.d.l.OX[.9XKXmXCXk.u.J.H.I.j.XX@X].9XZXZXHXwX~ } $X X}.$X .:.#.#.#.#.#.@.0.` t N c c c c c 6 %X",
"%X6 c c c c c Z i c.J.K.K.K.A.K.D.G.&X X}.MXKXSXz.u.H.H.I.j.XX X].eXZXAXFXIX~ >.| $X,X,X@X#X[ :.#.#.#.@.@.0.+.F M c c c c c f L ",
"L f c c c c c M a b.S.G.G.G.K.K.U.j.|.}.9XMXSXaXp.S.G.I.l.OX X[.9XSXZXFX4X! >.-.:XlXiX9X[.#X| %.#.#.#.@.@.9.+.d M v c c c c g K ",
"J f c c c c c n s S.H.G.G.G.G.S.I.h.XX[.pXMXxXk.p.Z.b.c.5XCXnXvXmXAXFX4X! >.3.>.6.iXdXrX[.#X .%.#.@.#.@.@.@.$.d m c c c c c k H ",
"J f c c c c c n s b.Z.C.G.C.C.H.b.%X|.&XpXvXpXc.G.C.V.C.p.8XGXSXmXHX4X! n.5.5.8.-.:XuXqX,X X{.[ #.#.@.@.@.@.+.d Z B c c c c l H ",
"I f c c c c c M a b.Z.C.C.C.C.H.c.-X0X9XuXlX3Xx.Z.C.V.C.V.~ 4XFXFX4X! >.3.5.4.4.-.:XqXqX,X,X,X[ %.q.@.@.@.9.+.d M Z c c c c k H ",
"`.6 c c c c c M A c.Z.V.V.C.Z.b.m.<XqXqXqXuX5Xp.b.N.V.N.B.v.~ 4XwX! v.3.5.4.4.4.-.X.qXqX9X9X9X..%.@.@.@.@.9.+.d M c c c c c f J ",
"%X6 c c c c c M k x.Z.N.N.N.N.b.x.9XuXqX9X0Xh.c.N.N.m.m.m.m.B.;.;.n.5.5.4.4.4.1.-.| 0X,X9XqX<X..@.@.@.@.@.0.[ F N c c c c c 6 L ",
"1X- c c c c c c h } Z.N.m.N.N.Z.x.<XuX9X&X|.%Xx.V.B.m.n.n.n.M.n.3.3.5.4.4.4.<.1.-. .XX{.9XqX0X[ $.@.@.@.@.0.[ l N c c c c c 5 -X",
"eX; c c c c c c n _ P.m.m.m.N.B.x.:XuXuX,X}.}.3.P.n.n.n.n.n.3.3.3.5.4.4.<.1.<.1.,.{.}.@X9XuX:X{ $.@.@.@.@.&.) j c c c c c B 7 <X",
"UXe c c c c c c M s v.B.n.n.n.m.>.l.lXdX9X].|.X.v.n.n.n.3.3.5.5.5.4.4.1.1.<.<.:...#X].0XiXcX=X^ 9.@.@.@.@.&.s m c c c c c B 5 UX",
"UXb l c c c c B N z 6.B.n.n.n.n.v.j.uXcXuX{.@X%X;.v.3.3.3.5.4.4.4.1.4.1.,.,.2.%.%X#X].9XdXaXo.+.@.@.@.@.9.$.F Z c c c c c l t UX",
"UX`.7 c c c c c c h _ P.4.8.3.n.n.! 2XcXiX,X[.oX| >.8.4.4.4.6.4.4.<.<.<.,.2.*. .#X].,XiXcXeX{ 0.@.@.@.@.w.] j c c c x B c 6 I UX",
"UX2X* B c c c c c n A 8.3.5.5.5.5.;.X.lXgXiX[.&X|.| >.8.4.6.6.<.<.<.<.,.7.=.o.|.{.].pXgXcX .^ 0.@.@.@.9.$.d m c c c c c v & 1XUX",
"UXUXr x c c c c c B h _ r.4.4.5.4.8.! qXCXbXpX_.&XXX%X,.:.8.1.2.<.:.7.*.#. .XX X_.qXmXnXuX{ $.@.@.@.@.&.] j c c c c c c B 5 UXUX",
"UXUXI ; c c c c c c M z >.8.4.4.4.4.-.} xXmXmXqX_.[. X[.o.} ,.2.2.} ..o.%X#X}._.9XmXCXxX..^ @.@.@.@.9.&.a m c c c c c B 6 G UXUX",
"UXUXUX% B c c c c c B m _ r.4.6.6.1.8.O.o.CXnXmXuX*X_.[.XX}.%X%X%X%X X$X X_.[.uXmXmXHX=X/ 9.@.@.@.@.&.) j B c x c c c S $ eXUXUX",
"UXUXUXA 6 V c c c c c c 3 ] r.<.<.<.<.1.' X.CXmXZXbX9X*X_.].*X*X|.[.]..X[.9XvXZXnXHX=X^ $.@.@.@.@.&.{ g B c c N c c c 6 y UXUXUX",
"UXUXUXeX$ B c c c c c c m y -.7.,.<.<.<.7.E | xXGXAXZXvXuX9X*X*X&X*X9XwXvXZXZXGXCXX./ +.@.@.@.@.w.=.F M c c c c c c S $ <XUXUXUX",
"UXUXUXUXA ; V c c c c c B m u 2.7.,.,.2.<.7.E ..wXDXGXAXZXmXbXvXvXbXmXZXAXGXDXpX..^ $.@.@.@.@.0.+.a m c c c c c c B 6 y UXUXUXUX",
"UXUXUXUXUX. B B c c c c c c m u -.7.#.,.,.#.q.O.` o.wXbXCXGXAXGXAXGXGXDXbXpX=X/ ^ @.@.@.$.9.w.%.d m v x c c c c c B . rXUXUXUXUX",
"UXUXUXUXUX+X$ B c c c c c c c m i ' *.q.#.#.#.#.#.=.` ..=X4XwXwXwXwX5X=X..^ ^ @.9.@.@.@.9.&.' a m B c x c c c c D $ I UXUXUXUXUX",
"UXUXUXUXUXUXp ; S c c c c c c c m y ) *.q.q.#.#.#.#.$.+.` ` / ` ` ` ^ ^ +.0.9.@.9.9.$.&.&.{ y m B c B x c c x S 7 e UXUXUXUXUXUX",
"UXUXUXUXUXUXUXX f V c c c c c c v M y s ' *.0.#.[ @.#.@.9.9.9.$.0.0.9.@.@.@.9.[ 9.0.*.' s j M c c c c c c c B g . UXUXUXUXUXUXUX",
"UXUXUXUXUXUXUXrX  l V c c c c c c c B m r ) ' *.w.0.9.@.@.@.[ 9.9.@.@.@.@.@.9.&.&.' ) t m N c c c c c c c V x   6XUXUXUXUXUXUXUX",
"UXUXUXUXUXUXUXUX1X  z V c c c c B x x c M j y s ] +.%.&.&.w.0.0.0.0.0.0.*.*.+.{ ) y j M c c c c c c c x B c   -XUXUXUXUXUXUXUXUX",
"UXUXUXUXUXUXUXUXUX1X  l V c c c c c c c B c N m j u s ) ] { ' [ [ ' { { ) s a j m M B c c c c c c c b V c   -XUXUXUXUXUXUXUXUXUX",
"UXUXUXUXUXUXUXUXUXUX<X  6 S c c c c c c c c c c N M j j j k y u z z k l j m M B c c c c c c c c c c S g   -XUXUXUXUXUXUXUXUXUXUX",
"UXUXUXUXUXUXUXUXUXUXUXyX. * S c c c c c c c c c c c c c c N N N N N N c c c c c c c c c c c c c B D - . eXUXUXUXUXUXUXUXUXUXUXUX",
"UXUXUXUXUXUXUXUXUXUXUXUXUXy   l S c c c c c c c c c c c c c c c c c c c c c c c c c c c c c c D c   p UXUXUXUXUXUXUXUXUXUXUXUXUX",
"UXUXUXUXUXUXUXUXUXUXUXUXUXUX-X. $ B S c c c c c c c c c c c c c c c c c c c c c c c c c c V V & . L UXUXUXUXUXUXUXUXUXUXUXUXUXUX",
"UXUXUXUXUXUXUXUXUXUXUXUXUXUXUXUXG . * c V B c c c c c c c c c c c c c c c c c c c c c D B - . i UXUXUXUXUXUXUXUXUXUXUXUXUXUXUXUX",
"UXUXUXUXUXUXUXUXUXUXUXUXUXUXUXUXUXrXU * % f V V B c c c c c c c c c c c c B c B V V f % % i rXUXUXUXUXUXUXUXUXUXUXUXUXUXUXUXUXUX",
"UXUXUXUXUXUXUXUXUXUXUXUXUXUXUXUXUXUXUXUXP e % % 6 k B V V V v V B B B S B B l 6 * % e I UXUXUXUXUXUXUXUXUXUXUXUXUXUXUXUXUXUXUXUX",
"UXUXUXUXUXUXUXUXUXUXUXUXUXUXUXUXUXUXUXUXUXUXrXP y e % % % & 4 5 5 5 & % % X & i P 6XUXUXUXUXUXUXUXUXUXUXUXUXUXUXUXUXUXUXUXUXUXUX",
"UXUXUXUXUXUXUXUXUXUXUXUXUXUXUXUXUXUXUXUXUXUXUXUXUXUXUX1X%XP J G G J I -X;XrXUXUXUXUXUXUXUXUXUXUXUXUXUXUXUXUXUXUXUXUXUXUXUXUXUXUX"
};
