<?xml version="1.0" standalone="no"?>
<!DOCTYPE svg PUBLIC "-//W3C//DTD SVG 20010904//EN"
 "http://www.w3.org/TR/2001/REC-SVG-20010904/DTD/svg10.dtd">
<svg version="1.0" xmlns="http://www.w3.org/2000/svg"
 width="1024.000000pt" height="1024.000000pt" viewBox="0 0 1024.000000 1024.000000"
 preserveAspectRatio="xMidYMid meet">
<metadata>
Created by potrace 1.15, written by Peter Selinger 2001-2017
</metadata>
<g transform="translate(0.000000,1024.000000) scale(0.100000,-0.100000)"
fill="#000000" stroke="none">
<path d="M4852 10190 c-1156 -69 -2186 -482 -3056 -1228 -139 -119 -422 -403
-540 -542 -134 -157 -278 -350 -394 -530 -134 -208 -161 -256 -282 -495 -404
-799 -596 -1722 -539 -2581 68 -1032 427 -1975 1063 -2794 28 -36 55 -70 61
-77 5 -6 21 -26 35 -44 14 -19 42 -51 63 -73 22 -22 45 -49 52 -59 40 -57 248
-273 371 -384 134 -121 371 -314 458 -373 166 -113 330 -219 366 -239 25 -13
77 -43 115 -66 246 -149 677 -331 1050 -443 682 -206 1472 -257 2230 -146 608
89 1176 288 1770 619 272 152 666 443 884 652 41 40 77 73 79 73 9 0 162 163
162 172 0 5 5 6 10 3 6 -3 10 1 10 10 0 9 5 13 10 10 6 -3 10 -3 10 2 1 4 21
31 46 58 25 28 60 67 77 88 18 22 44 53 60 70 15 18 37 45 50 60 12 16 43 54
68 85 64 79 314 444 355 517 6 11 44 79 84 150 287 510 487 1093 575 1679 44
297 50 386 50 761 0 366 -4 428 -46 715 -110 738 -419 1524 -847 2150 -90 132
-249 341 -323 425 -342 387 -655 665 -1041 923 -732 489 -1528 766 -2418 841
-173 15 -517 20 -678 11z m65 -345 c51 -15 144 -71 150 -90 1 -5 -15 -30 -36
-54 l-37 -44 -42 31 c-155 112 -359 18 -356 -163 1 -88 36 -150 104 -185 87
-45 178 -33 260 32 l50 40 27 -20 c16 -11 37 -29 47 -41 19 -21 18 -21 -25
-61 -24 -22 -69 -53 -99 -68 -49 -24 -66 -27 -160 -27 -94 0 -110 3 -155 27
-54 28 -123 96 -148 144 -42 84 -46 213 -8 298 66 151 258 232 428 181z m818
-34 c62 -27 129 -91 163 -156 24 -44 27 -61 27 -150 0 -86 -3 -107 -25 -150
-55 -112 -157 -178 -285 -183 -101 -5 -173 20 -244 84 -192 172 -120 489 128
569 64 21 173 14 236 -14z m-1506 -68 c23 -89 26 -85 -74 -106 -49 -11 -92
-21 -94 -23 -2 -1 2 -26 9 -53 10 -44 15 -50 33 -46 128 29 161 35 167 28 8
-8 31 -106 26 -110 -1 -1 -41 -11 -90 -22 -48 -10 -89 -21 -92 -24 -2 -2 9
-64 26 -137 17 -73 29 -134 28 -136 -9 -8 -119 -31 -123 -25 -7 12 -135 581
-135 602 0 12 10 21 28 26 39 9 266 61 274 62 4 1 12 -16 17 -36z m2059 -43
c23 -6 42 -15 42 -21 0 -11 -152 -601 -156 -607 -4 -6 -115 21 -120 30 -4 7
117 490 147 586 8 23 16 31 27 28 10 -3 36 -10 60 -16z m378 -111 l52 -22 43
-221 c23 -122 46 -225 49 -229 4 -5 38 67 75 160 37 92 71 173 76 179 7 9 24
6 64 -10 30 -11 55 -24 55 -28 0 -7 -230 -581 -236 -587 -8 -9 -114 42 -118
58 -3 9 -24 112 -47 229 -23 116 -45 212 -48 212 -3 0 -37 -79 -76 -176 -38
-96 -72 -177 -75 -179 -13 -8 -115 43 -112 56 3 14 221 558 229 572 6 10 12 9
69 -14z m-3066 -243 c45 -127 83 -233 86 -237 2 -4 37 3 76 17 39 13 77 24 84
24 13 0 50 -97 40 -107 -13 -13 -272 -100 -279 -93 -4 3 -46 114 -92 246 -47
131 -94 263 -105 292 l-20 53 43 18 c59 26 71 29 79 22 4 -3 43 -109 88 -235z
m-385 -230 c132 -115 241 -213 243 -217 4 -9 -90 -59 -109 -59 -6 0 -31 18
-55 40 -24 22 -48 40 -53 40 -6 0 -58 -25 -116 -56 l-106 -57 6 -71 7 -71 -57
-28 c-32 -15 -59 -26 -61 -25 -2 2 -19 141 -39 308 -19 168 -37 319 -40 337
-6 31 -3 34 52 62 46 23 61 27 73 18 8 -7 123 -106 255 -221z m4243 118 c20
-8 50 -27 66 -42 32 -30 66 -101 66 -137 0 -20 -7 -24 -42 -30 -24 -3 -50 -8
-58 -11 -11 -3 -20 11 -32 44 -18 50 -52 77 -82 66 -28 -11 -25 -36 15 -161
34 -105 40 -136 37 -185 -10 -132 -139 -205 -263 -147 -82 39 -135 119 -135
207 l0 32 64 0 63 0 6 -42 c9 -71 78 -115 122 -78 23 19 19 52 -21 174 -58
179 -47 257 46 304 52 26 96 28 148 6z m-4962 -328 c147 -67 245 -258 200
-393 -22 -67 -58 -107 -177 -198 -98 -75 -101 -77 -119 -59 -28 30 -361 466
-367 480 -2 7 19 31 49 55 187 148 282 175 414 115z m2769 -91 c55 -2 114 -5
130 -8 17 -3 75 -10 130 -17 143 -17 265 -38 380 -67 55 -13 111 -26 125 -28
44 -6 114 -26 125 -34 5 -5 28 -12 50 -16 65 -11 303 -102 455 -172 171 -80
205 -97 245 -122 22 -14 64 -38 93 -53 29 -16 75 -44 101 -63 27 -19 51 -35
55 -35 6 0 94 -61 175 -122 216 -163 541 -470 646 -611 28 -36 55 -67 60 -67
6 0 16 -12 22 -27 7 -16 26 -44 43 -63 16 -19 30 -38 30 -42 0 -3 17 -25 38
-48 20 -23 37 -46 37 -51 0 -4 7 -16 15 -26 8 -10 24 -35 35 -57 11 -21 30
-48 41 -61 12 -13 24 -34 27 -47 4 -12 17 -36 31 -51 13 -15 37 -57 52 -92 15
-36 30 -65 34 -65 4 0 15 -19 25 -42 10 -24 33 -74 51 -112 19 -38 34 -75 34
-83 0 -7 4 -13 9 -13 5 0 12 -15 16 -32 4 -18 13 -46 21 -63 43 -97 109 -317
150 -500 50 -222 72 -390 84 -643 27 -541 -73 -1122 -270 -1588 -276 -650
-775 -1244 -1375 -1636 -712 -467 -1578 -680 -2420 -597 -1089 107 -2071 676
-2700 1564 -384 542 -589 1112 -646 1800 -18 221 -6 610 25 822 105 696 363
1284 810 1838 96 120 346 372 471 477 481 402 1041 671 1645 792 120 24 300
49 317 44 4 -1 42 3 83 10 114 19 159 19 495 7z m3045 -229 c116 -58 196 -173
207 -298 l6 -59 -64 3 -64 3 -6 45 c-9 63 -31 109 -70 149 -44 44 -86 61 -149
61 -63 0 -106 -17 -148 -60 -47 -47 -65 -88 -66 -150 -2 -117 106 -220 230
-220 37 0 44 -12 44 -76 0 -55 -9 -59 -98 -44 -159 27 -293 162 -309 312 -14
139 84 294 221 348 75 30 191 24 266 -14z m-6400 -143 c58 -53 154 -142 214
-197 60 -56 118 -109 129 -119 21 -18 21 -18 -24 -63 l-45 -45 -229 40 c-126
22 -230 39 -232 37 -2 -2 58 -61 134 -132 76 -71 139 -133 141 -139 1 -6 -17
-29 -40 -52 l-43 -41 -230 213 c-126 117 -231 217 -232 222 -2 5 16 27 39 50
l43 40 215 -38 c118 -21 223 -38 232 -36 12 1 -29 45 -128 136 l-145 134 43
44 c23 23 45 43 48 43 3 0 53 -44 110 -97z m5695 64 c22 -31 18 -65 -10 -92
-30 -30 -54 -31 -89 -4 -46 37 -29 109 29 121 31 6 54 -2 70 -25z m1185 -509
c93 -28 178 -111 215 -210 25 -68 17 -178 -19 -251 -64 -133 -213 -211 -357
-188 -115 19 -198 82 -251 189 -29 58 -33 77 -33 143 0 65 5 85 33 142 76 154
245 226 412 175z m-7286 -303 c170 -36 311 -65 313 -65 10 0 -1 -27 -28 -67
-34 -49 -31 -48 -136 -27 -30 6 -33 4 -97 -92 -36 -55 -66 -105 -66 -113 0 -7
16 -35 35 -61 19 -26 35 -51 35 -54 0 -10 -64 -106 -71 -106 -5 0 -76 96 -306
414 -51 71 -93 133 -93 139 0 6 14 32 31 59 25 38 35 47 53 43 11 -3 160 -34
330 -70z m7825 -455 c12 -28 21 -54 19 -58 -3 -8 -159 -150 -272 -250 -27 -23
-46 -45 -43 -49 4 -3 89 2 189 11 268 24 251 26 277 -36 12 -28 18 -55 14 -59
-5 -4 -127 -85 -272 -179 -291 -190 -273 -184 -301 -100 -9 29 -10 44 -3 48
112 72 293 197 293 202 0 5 -8 6 -17 4 -47 -10 -368 -33 -373 -27 -3 5 -15 28
-25 52 l-19 43 39 36 c133 119 245 225 242 229 -3 2 -84 -16 -182 -41 l-177
-44 -25 55 c-14 30 -23 56 -20 59 6 6 597 153 618 153 9 1 24 -19 38 -49z
m-8378 -117 c24 -56 24 -60 -2 -68 -33 -11 -98 -75 -121 -119 -41 -80 -22
-192 44 -253 59 -56 162 -69 238 -30 107 53 159 206 97 285 -16 20 -21 15 -51
-58 -16 -39 -32 -73 -37 -75 -8 -5 -87 22 -102 35 -10 9 111 300 124 300 46 0
152 -95 191 -170 34 -67 33 -184 -4 -262 -35 -76 -98 -142 -167 -175 -49 -24
-68 -28 -146 -28 -75 1 -99 5 -145 26 -101 47 -179 151 -194 259 -14 96 32
225 107 302 43 45 123 91 139 81 6 -3 18 -25 29 -50z"/>
<path d="M5554 9710 c-114 -27 -186 -153 -154 -271 22 -82 113 -149 203 -149
103 0 196 103 197 218 0 131 -122 232 -246 202z"/>
<path d="M2984 9094 c13 -114 18 -144 25 -144 14 0 121 62 121 69 0 7 -62 62
-128 115 l-25 20 7 -60z"/>
<path d="M2325 8796 c-49 -15 -115 -57 -115 -72 0 -13 217 -297 231 -302 16
-6 106 76 123 113 27 57 7 129 -56 200 -53 62 -116 82 -183 61z"/>
<path d="M4950 7834 c-96 -96 -233 -233 -305 -304 -229 -227 -521 -524 -501
-509 11 8 123 117 250 242 667 660 755 749 734 747 -2 0 -82 -79 -178 -176z"/>
<path d="M5073 7868 c-50 -51 -382 -382 -737 -736 -355 -354 -646 -646 -646
-650 0 -3 96 89 213 205 116 116 453 450 747 742 294 292 530 531 524 531 -5
0 -51 -42 -101 -92z"/>
<path d="M5122 7458 c-155 -155 -282 -285 -282 -290 0 -4 -3 -8 -8 -8 -7 0
-432 -418 -1263 -1244 -170 -169 -308 -310 -305 -313 2 -3 305 294 673 660
367 366 850 845 1073 1066 222 220 402 402 399 405 -2 3 -132 -121 -287 -276z"/>
<path d="M5744 7377 c-6 -7 -342 -342 -747 -744 -405 -403 -733 -733 -729
-733 11 1 1508 1490 1497 1490 -5 -1 -15 -6 -21 -13z"/>
<path d="M5795 6498 c-231 -230 -601 -600 -822 -820 -222 -220 -403 -402 -403
-404 0 -2 7 -1 15 2 8 4 15 10 15 16 0 5 4 7 9 4 5 -4 11 -2 13 4 4 13 267
277 1001 1003 334 331 607 605 607 609 0 4 -3 7 -7 7 -5 -1 -197 -190 -428
-421z"/>
<path d="M5615 6228 c-352 -352 -634 -638 -627 -636 15 4 1282 1258 1282 1270
0 4 -3 7 -7 7 -5 -1 -296 -289 -648 -641z"/>
<path d="M5755 6274 c-935 -928 -1005 -998 -1005 -1001 0 -16 496 470 1415
1386 131 131 168 172 153 171 -2 0 -255 -250 -563 -556z"/>
<path d="M6260 6684 c-52 -52 -394 -392 -760 -755 -366 -363 -656 -656 -645
-650 11 5 153 141 315 302 509 502 1200 1191 1200 1195 0 15 -28 -8 -110 -92z"/>
<path d="M3510 6221 c-289 -286 -535 -529 -547 -541 -13 -12 -23 -27 -23 -33
0 -6 29 19 64 54 36 35 281 279 545 541 436 434 499 498 489 498 -2 0 -239
-234 -528 -519z"/>
<path d="M6205 6539 c-105 -104 -223 -222 -264 -262 -41 -40 -86 -85 -100
-101 -14 -16 -42 -44 -61 -62 -151 -143 -850 -844 -841 -844 6 0 226 214 489
475 262 262 593 590 734 730 141 140 251 255 245 255 -7 0 -98 -86 -202 -191z"/>
<path d="M6404 6649 c-21 -23 -340 -340 -708 -705 -368 -365 -667 -666 -664
-670 3 -3 160 147 347 333 188 186 341 338 341 338 0 -3 719 717 729 728 28
35 -7 15 -45 -24z"/>
<path d="M3510 6130 c-300 -297 -564 -558 -587 -581 -24 -22 -43 -45 -43 -51
0 -6 2 -9 4 -7 39 36 1176 1173 1176 1176 0 2 -1 3 -2 3 -2 0 -248 -243 -548
-540z"/>
<path d="M3300 5739 c-267 -263 -488 -479 -492 -479 -5 0 -8 -4 -8 -10 0 -5 3
-10 8 -10 10 0 985 970 980 975 -2 2 -222 -212 -488 -476z"/>
<path d="M6005 5503 c-319 -318 -649 -645 -733 -727 l-152 -151 -321 320
c-177 176 -317 313 -313 304 14 -27 618 -639 630 -639 6 0 158 145 338 323
179 177 326 321 326 320 0 -1 28 28 63 64 34 36 95 97 135 137 41 39 161 157
268 262 106 106 196 189 199 185 4 -3 5 -1 3 4 -1 6 17 30 40 53 34 34 49 42
66 38 20 -5 24 0 33 39 6 25 7 45 4 45 -3 0 -267 -260 -586 -577z"/>
<path d="M6765 5740 c-159 -160 -291 -290 -292 -290 -1 0 -4 12 -6 28 -4 26
-4 26 -5 2 -4 -73 10 -62 267 194 137 137 253 251 257 255 32 24 96 101 84
101 -8 -1 -145 -131 -305 -290z"/>
<path d="M6824 5707 c-149 -149 -286 -290 -305 -312 l-34 -40 45 39 c69 59
580 568 580 578 0 4 -3 8 -7 8 -5 0 -130 -123 -279 -273z"/>
<path d="M6909 5701 c-124 -124 -264 -266 -310 -316 l-84 -90 98 90 c99 91
487 473 520 512 10 11 15 23 10 25 -4 3 -110 -97 -234 -221z"/>
<path d="M3133 5396 c-200 -199 -367 -360 -372 -358 -12 4 -19 -21 -26 -94
l-5 -61 304 301 c277 275 402 405 352 366 -11 -8 -157 -151 -325 -317 -168
-167 -307 -303 -309 -303 -3 0 -2 15 1 33 4 27 69 96 359 387 369 371 407 411
392 408 -5 0 -172 -163 -371 -362z"/>
<path d="M7090 5605 c-85 -85 -233 -232 -327 -327 -95 -94 -171 -174 -168
-176 3 -3 78 67 168 155 89 88 236 232 326 320 90 88 162 166 160 172 -2 6
-74 -59 -159 -144z"/>
<path d="M7110 5537 c-85 -88 -236 -240 -335 -338 -99 -98 -175 -179 -170
-178 15 0 675 652 675 667 0 6 -3 11 -7 10 -5 0 -78 -73 -163 -161z"/>
<path d="M7390 5440 c0 -5 -6 -10 -12 -10 -7 0 -176 -165 -375 -367 -198 -203
-364 -366 -366 -363 -3 3 -8 32 -11 65 -3 33 -10 91 -15 130 -5 38 -7 73 -5
77 3 4 0 8 -6 8 -6 0 -9 3 -6 8 16 27 -109 375 -143 396 -17 11 -13 -5 14 -57
131 -245 176 -623 115 -970 -31 -175 -142 -421 -261 -580 -285 -380 -718 -597
-1191 -597 -205 0 -385 33 -561 104 -114 47 -156 68 -257 133 -132 86 -205
150 -335 298 -141 160 -266 415 -310 630 -31 152 -47 376 -30 406 6 11 5 11
-4 3 -7 -6 -13 -42 -14 -84 l-2 -72 -90 -87 c-49 -47 -216 -214 -370 -370
l-280 -284 -9 33 -9 32 371 368 c205 202 372 371 372 376 0 10 -168 -154 -491
-481 l-257 -260 -12 29 c-11 30 -11 30 384 423 217 216 391 393 387 393 -4 0
-182 -174 -394 -386 -385 -385 -387 -386 -397 -358 -11 27 -4 35 334 373 190
190 349 351 353 356 11 15 -194 -186 -460 -450 -133 -133 -239 -230 -241 -223
-3 7 -7 20 -9 28 -3 10 146 167 422 445 234 236 343 348 241 248 -550 -541
-665 -651 -671 -641 -4 6 -10 34 -14 62 -4 28 -9 60 -11 71 -2 11 -6 39 -8 62
-2 23 -7 52 -11 63 -6 19 28 56 226 251 128 125 231 231 228 233 -3 3 -106
-96 -229 -219 -123 -123 -225 -223 -227 -221 -2 2 -5 17 -7 34 -4 28 14 48
239 268 134 131 242 240 239 243 -3 3 -109 -99 -237 -227 -128 -128 -235 -232
-240 -232 -4 0 -7 15 -7 33 0 30 18 51 173 203 95 93 200 194 233 225 59 56
122 134 79 99 -10 -8 -122 -120 -248 -247 -127 -128 -234 -233 -237 -233 -3 0
-4 17 -2 38 3 34 26 59 248 277 134 132 244 238 244 235 0 -2 7 7 17 20 9 14
30 41 47 60 56 64 -84 -72 -313 -302 -124 -126 -229 -228 -233 -228 -4 0 -8
15 -8 33 0 29 27 58 266 292 232 227 379 381 319 335 -11 -8 -149 -144 -307
-302 -234 -233 -288 -292 -289 -315 -7 -177 4 -393 25 -510 40 -214 94 -413
137 -495 5 -10 9 -24 9 -32 0 -8 4 -16 10 -18 5 -1 11 -12 13 -23 2 -11 11
-37 21 -57 9 -21 16 -42 16 -48 0 -5 4 -10 9 -10 5 0 12 -13 16 -30 4 -16 11
-32 15 -35 5 -3 28 -41 50 -84 22 -43 49 -87 60 -99 11 -12 20 -24 20 -27 0
-7 46 -70 72 -99 10 -11 30 -38 45 -60 16 -22 42 -55 58 -72 163 -174 247
-252 360 -336 50 -38 101 -77 115 -88 14 -11 29 -20 34 -20 4 0 21 -11 38 -25
16 -14 35 -25 42 -25 8 0 24 -8 37 -19 32 -25 225 -121 312 -155 73 -29 245
-82 311 -96 23 -5 84 -17 136 -29 301 -63 708 -52 1033 29 289 73 535 183 787
354 74 50 242 186 290 235 15 14 42 40 60 57 19 17 48 47 64 65 16 19 48 57
73 85 91 107 230 317 291 439 68 137 100 209 108 242 4 16 16 48 26 73 42 99
98 339 119 510 13 110 16 390 5 500 -18 181 -86 490 -108 490 -9 0 0 -48 12
-65 4 -5 8 -17 8 -25 0 -8 6 -35 12 -60 l11 -45 -430 -427 c-237 -236 -435
-428 -439 -428 -5 0 -4 16 2 36 11 35 160 188 728 745 100 99 133 139 114 139
-2 0 -186 -182 -408 -405 -223 -223 -411 -405 -417 -405 -8 0 -9 6 -3 18 5 9
7 23 5 29 -4 12 135 153 611 621 178 174 212 212 189 212 -5 0 -181 -176 -392
-390 -212 -215 -388 -390 -393 -390 -4 0 -8 15 -8 33 0 31 20 53 213 242 579
568 586 575 560 575 -4 0 -177 -172 -384 -382 -208 -211 -379 -381 -382 -378
-8 10 -16 80 -8 77 4 -1 178 165 385 368 208 204 382 372 387 373 12 5 12 22
-1 22 -5 0 -10 -4 -10 -10z m90 -331 c0 -24 -13 -38 -365 -387 -371 -369 -549
-542 -552 -539 -1 2 2 19 7 38 7 26 90 114 357 380 404 402 535 529 546 529 4
0 7 -10 7 -21z m7 -69 c-3 -10 -1 -20 5 -22 9 -3 -161 -175 -755 -764 -211
-209 -264 -254 -223 -192 9 14 13 28 9 31 -7 7 948 967 962 967 4 0 5 -9 2
-20z m18 -88 c0 -20 3 -54 6 -74 l6 -37 -236 -231 c-407 -400 -1291 -1273
-1336 -1320 -24 -25 -114 -115 -200 -200 -245 -243 -335 -333 -335 -337 0 -28
129 98 1450 1420 356 356 649 647 652 647 3 0 5 -15 6 -33 1 -31 -17 -52 -242
-273 -911 -898 -1756 -1737 -1752 -1741 2 -3 13 0 23 5 10 6 455 447 990 981
534 534 974 971 977 971 3 0 6 -15 6 -33 0 -30 -25 -57 -263 -292 -1290 -1275
-1616 -1599 -1612 -1603 9 -9 72 52 666 639 341 338 622 616 625 619 3 2 10
-2 15 -10 9 -12 10 -12 5 3 -3 10 0 25 7 34 24 33 522 534 540 544 15 8 17 5
17 -24 0 -30 -25 -58 -276 -307 -151 -151 -282 -274 -289 -274 -8 1 -13 -1
-10 -5 2 -4 -261 -270 -585 -591 -324 -321 -587 -586 -585 -588 11 -11 130
104 895 869 456 456 833 829 838 829 4 0 6 -16 4 -35 -4 -32 -54 -85 -469
-493 -623 -612 -1113 -1100 -1113 -1107 0 -18 91 68 433 407 207 205 401 398
430 428 165 169 711 710 713 707 2 -2 1 -19 -2 -39 -7 -38 1 -30 -999 -1020
-165 -163 -320 -318 -345 -343 -61 -64 -19 -41 54 29 32 31 63 53 68 49 6 -3
8 -1 5 4 -4 6 86 102 199 214 113 112 218 218 232 234 33 39 775 775 778 772
2 -1 -1 -20 -6 -42 -7 -33 -53 -84 -317 -349 -169 -171 -274 -279 -233 -239
41 39 178 172 303 295 126 123 230 221 231 218 2 -3 -7 -47 -20 -99 l-22 -94
-209 -210 c-114 -115 -199 -204 -188 -198 11 6 101 92 200 190 99 99 181 178
183 177 1 -2 -6 -25 -16 -52 -15 -39 -49 -80 -175 -204 -86 -85 -154 -156
-151 -159 2 -3 70 60 149 139 80 80 145 140 145 133 0 -43 -47 -111 -140 -201
-55 -53 -100 -102 -100 -107 0 -5 41 31 90 80 50 49 90 86 90 82 0 -13 -61
-131 -78 -149 -8 -10 -12 -18 -8 -18 9 0 -37 -85 -89 -165 -17 -27 -46 -72
-63 -100 -17 -27 -37 -57 -44 -65 -7 -8 -26 -32 -42 -55 -16 -22 -50 -61 -75
-86 -25 -26 -55 -58 -67 -70 -30 -34 -179 -170 -244 -222 -212 -170 -522 -328
-810 -410 -221 -64 -407 -88 -670 -88 -265 1 -429 22 -660 88 -352 99 -688
283 -913 500 -37 36 -67 62 -67 57 0 -5 -8 3 -17 16 -9 14 -25 31 -35 38 -36
26 -137 136 -163 177 -11 17 -22 32 -26 35 -5 4 -33 45 -74 108 -5 9 -18 25
-27 36 -10 11 -18 23 -18 28 0 5 -22 43 -48 86 -26 42 -69 122 -96 176 l-48
100 178 175 c99 96 256 251 351 344 166 163 172 168 179 142 6 -24 -6 -39
-137 -169 -177 -175 -549 -554 -529 -539 16 12 180 172 488 475 101 99 185
178 186 176 26 -29 11 -48 -319 -378 -184 -184 -332 -336 -330 -339 3 -2 80
70 171 160 92 90 238 235 326 322 88 86 163 157 168 157 4 0 11 -7 14 -16 6
-17 -103 -131 -486 -512 -87 -86 -158 -159 -158 -164 0 -8 157 143 484 465 88
86 163 157 167 157 4 0 10 -7 13 -16 6 -16 -45 -71 -436 -467 -43 -43 -78 -81
-78 -84 0 -7 122 110 370 354 146 145 169 161 170 117 0 -6 -57 -67 -126 -135
-142 -140 -304 -317 -219 -239 28 25 116 110 198 190 81 80 153 145 160 145
37 0 4 -44 -133 -180 -141 -140 -181 -185 -164 -185 4 0 80 72 169 161 146
145 163 158 168 137 7 -25 2 -31 -186 -216 -112 -110 -147 -154 -109 -133 11
6 29 21 39 33 11 13 78 80 149 150 119 118 130 126 141 108 11 -17 -3 -34
-144 -174 -86 -86 -153 -159 -150 -163 7 -7 88 69 235 220 65 67 88 79 98 53
3 -9 -45 -64 -132 -150 -76 -75 -141 -136 -144 -136 -4 0 -12 -12 -19 -26 -7
-16 -8 -25 -1 -22 6 2 78 70 161 153 141 139 152 148 165 131 12 -18 1 -32
-141 -171 -85 -83 -155 -155 -155 -158 0 -20 30 6 169 145 142 142 152 151
165 133 13 -18 3 -30 -127 -160 -160 -159 -174 -175 -158 -175 6 0 78 67 160
149 117 117 152 147 160 137 6 -8 9 -20 6 -27 -3 -8 -68 -76 -145 -152 -124
-122 -154 -157 -134 -157 3 0 74 67 157 150 136 135 153 148 167 134 13 -13 0
-30 -137 -164 -84 -83 -153 -155 -153 -161 0 -17 20 1 174 154 127 126 140
137 155 123 14 -15 2 -30 -139 -171 -85 -85 -149 -155 -141 -155 7 0 80 67
162 148 133 133 150 146 164 133 14 -14 -1 -31 -137 -168 -84 -84 -146 -153
-138 -153 8 0 81 66 162 147 134 134 149 146 163 132 15 -14 3 -29 -134 -165
-139 -136 -169 -172 -140 -162 5 2 77 71 160 153 133 134 150 148 164 134 14
-13 0 -31 -135 -164 -138 -138 -173 -179 -135 -158 8 5 80 73 158 151 107 106
148 141 161 136 9 -4 16 -10 14 -15 -2 -5 -70 -76 -152 -159 -82 -83 -146
-153 -142 -157 6 -7 26 11 222 205 51 50 97 92 101 92 4 0 14 -4 22 -9 10 -7
-23 -46 -138 -159 -83 -82 -151 -156 -151 -163 0 -7 2 -10 5 -8 2 2 74 73 160
158 143 142 157 153 172 138 15 -14 4 -28 -138 -168 -84 -84 -149 -154 -142
-156 6 -2 79 64 163 147 83 82 155 150 158 150 4 0 14 -4 22 -10 11 -7 -19
-42 -142 -164 -87 -86 -156 -156 -155 -157 20 -7 47 -7 52 1 4 6 -1 7 -12 3
-10 -4 52 62 137 146 133 131 157 151 178 146 22 -5 11 -19 -138 -168 -89 -89
-156 -163 -149 -166 6 -2 81 67 166 153 141 143 181 173 197 148 2 -4 -67 -79
-155 -167 -87 -88 -154 -162 -148 -164 6 -2 84 68 173 156 111 110 166 159
179 156 9 -3 17 -8 17 -12 0 -4 -62 -68 -138 -143 -180 -179 -188 -188 -172
-188 8 0 87 73 176 162 l163 161 43 -12 c24 -8 49 -15 57 -17 8 -3 12 -6 10
-9 -2 -2 -77 -78 -166 -168 -90 -90 -163 -167 -163 -171 0 -21 30 1 86 65 12
13 78 79 147 147 95 93 131 122 151 122 14 0 26 -3 26 -7 0 -14 -331 -333
-340 -328 -5 3 -7 0 -4 -8 2 -7 18 -14 35 -14 18 0 25 3 17 8 -9 6 39 59 156
174 149 148 171 166 193 160 24 -6 15 -17 -151 -182 -97 -96 -176 -177 -176
-179 0 -18 44 20 200 175 156 153 185 177 206 173 23 -4 9 -20 -155 -182 -100
-97 -181 -180 -181 -183 0 -2 11 -4 24 -3 13 0 22 4 19 9 -2 4 75 86 173 182
128 126 184 175 201 175 12 0 23 -3 23 -8 0 -4 -81 -87 -180 -185 -156 -155
-194 -197 -176 -197 2 0 90 85 195 189 173 172 229 216 249 196 3 -3 -80 -92
-186 -197 -106 -105 -190 -193 -188 -195 10 -10 52 27 231 207 162 162 194
190 220 190 27 0 13 -17 -180 -210 -115 -115 -204 -210 -196 -210 8 0 110 96
228 213 162 160 222 214 246 219 17 3 33 5 35 4 1 -2 -94 -99 -213 -217 -118
-117 -215 -217 -215 -221 0 -4 9 -4 19 0 11 4 20 11 20 16 -1 5 4 12 10 16 7
3 105 100 220 213 115 114 215 207 222 207 8 0 25 3 39 7 15 4 -62 -79 -215
-231 -131 -131 -231 -237 -222 -235 9 2 124 111 255 241 220 219 267 258 309
258 8 0 -98 -112 -236 -248 -138 -137 -251 -252 -251 -256 0 -18 54 31 294
268 189 187 271 262 305 278 25 11 51 23 56 26 6 3 -117 -122 -272 -277 -156
-155 -283 -284 -283 -287 0 -21 61 36 318 292 164 163 318 309 344 325 26 15
60 36 75 45 15 9 -123 -134 -307 -319 -185 -186 -330 -337 -323 -337 7 0 95
82 196 183 101 100 217 214 258 253 41 40 95 94 121 120 26 27 146 148 268
269 121 120 218 225 216 232 -3 7 1 10 8 7 12 -5 1120 1095 1112 1103 -2 3
-96 -87 -209 -199 -283 -279 -896 -882 -904 -888 -4 -3 0 6 10 20 9 14 28 44
42 68 22 36 1052 1082 1066 1082 2 0 4 -17 4 -38z m-3885 -407 c0 -20 -77
-103 -357 -385 -197 -198 -361 -360 -364 -360 -4 0 -10 12 -14 28 -6 25 16 50
352 382 197 196 364 357 371 358 7 1 12 -9 12 -23z m7 -89 c-1 -15 -112 -134
-347 -369 -190 -191 -347 -347 -351 -347 -3 0 -11 10 -17 23 -10 20 14 47 346
373 196 194 360 350 364 348 4 -3 6 -15 5 -28z"/>
<path d="M8620 7877 c-50 -16 -126 -94 -140 -144 -18 -59 -5 -124 33 -175 47
-61 90 -83 162 -83 205 0 294 261 129 378 -46 32 -128 43 -184 24z"/>
<path d="M1316 7558 c21 -29 47 -65 58 -80 11 -16 23 -28 27 -28 8 0 66 89 71
109 2 10 -20 19 -77 32 -122 28 -123 28 -79 -33z"/>
</g>
</svg>
